<?xml version="1.0" standalone="no"?>
<!DOCTYPE svg PUBLIC "-//W3C//DTD SVG 20010904//EN"
 "http://www.w3.org/TR/2001/REC-SVG-20010904/DTD/svg10.dtd">
<svg version="1.0" xmlns="http://www.w3.org/2000/svg"
 width="271.000000pt" height="259.000000pt" viewBox="0 0 271.000000 259.000000"
 preserveAspectRatio="xMidYMid meet">

<g transform="translate(0.000000,259.000000) scale(0.100000,-0.100000)"
fill="#000000" stroke="none">
<path d="M1510 1751 l0 -621 228 2 c128 0 207 4 182 8 -35 5 -38 7 -15 9 17 1
36 5 43 9 18 12 13 1138 -5 1134 -7 -1 -13 5 -13 14 0 8 4 13 9 10 5 -3 11 1
15 9 3 8 0 15 -7 16 -22 1 -51 7 -77 15 -14 4 -100 9 -192 11 l-168 5 0 -621z"/>
<path d="M170 780 l0 -620 183 1 c100 1 206 4 235 7 l53 7 -1 567 c0 448 2
567 12 571 10 4 10 6 1 6 -7 1 -13 14 -13 29 0 51 -7 52 -247 52 l-223 0 0
-620z"/>
<path d="M1165 1112 c-26 -4 -28 -5 -10 -12 l20 -9 -20 0 c-17 -1 -17 -3 -5
-11 10 -6 11 -10 3 -10 -19 0 -19 -896 0 -902 6 -3 305 -5 662 -4 l650 1 3
478 2 477 -637 -2 c-351 -1 -651 -3 -668 -6z"/>
</g>
</svg>
