<?xml version="1.0" encoding="UTF-8"?>
<svg version="1.1" xmlns="http://www.w3.org/2000/svg" width="200" height="200">
<path d="M0 0 C66 0 132 0 200 0 C200 66 200 132 200 200 C134 200 68 200 0 200 C0 134 0 68 0 0 Z " fill="#BCBDB8" transform="translate(0,0)"/>
<path d="M0 0 C7.92 0 15.84 0 24 0 C24.99 2.97 25.98 5.94 27 9 C27.9563874 10.69207001 28.94410931 12.36816893 30 14 C30.495 15.485 30.495 15.485 31 17 C33.42383077 18.16953416 33.42383077 18.16953416 36 19 C36.66 19.33 37.32 19.66 38 20 C45.07773412 20.61153227 51.18644383 20.84915042 57.21875 16.77734375 C59.96239064 15.58000935 61.18885522 15.95088401 64 17 C66.5033345 18.88198982 68.67543588 21.02610442 70.875 23.25 C71.48085937 23.82363281 72.08671875 24.39726563 72.7109375 24.98828125 C76.99683402 29.2644371 76.99683402 29.2644371 77.01171875 32.72265625 C76 35 76 35 73.9375 38.1875 C71.27855565 42.66777254 71.22047559 46.92513701 72 52 C73.72325438 57.55701132 76.82489268 62.13462479 82 65 C84.62033124 65.9503174 87.22663445 66.72792395 89.92578125 67.421875 C92 68 92 68 93 69 C93.08726223 70.78071246 93.10699041 72.5648314 93.09765625 74.34765625 C93.09443359 75.42724609 93.09121094 76.50683594 93.08789062 77.61914062 C93.07951172 78.75544922 93.07113281 79.89175781 93.0625 81.0625 C93.05798828 82.20267578 93.05347656 83.34285156 93.04882812 84.51757812 C93.03699747 87.34510351 93.0205141 90.1725264 93 93 C92.32380615 93.18973389 91.6476123 93.37946777 90.95092773 93.57495117 C90.05833252 93.83252197 89.1657373 94.09009277 88.24609375 94.35546875 C87.3636499 94.60707764 86.48120605 94.85868652 85.57202148 95.11791992 C80.60262162 96.82218587 77.2125373 99.39632163 74.0625 103.5625 C72.1808203 109.65028725 71.69946709 115.88892127 74.1953125 121.859375 C75.11100535 123.55065468 76.0763937 125.21649793 77.1015625 126.84375 C78 129 78 129 77.45703125 130.99609375 C75.59099423 133.56252 73.45849458 135.48315668 71.0625 137.5625 C67.58696121 140.56515275 67.58696121 140.56515275 64.3203125 143.78515625 C63.88460937 144.18605469 63.44890625 144.58695313 63 145 C60.52581566 144.85861804 58.5228434 144.22290868 56.25 143.25390625 C50.81447071 140.96353201 45.88482209 140.00051434 40 141 C34.9490863 143.10888665 30.82775975 146.28706708 28 151 C27.0960352 153.61009655 26.32029551 156.22055996 25.61328125 158.890625 C25 161 25 161 24 162 C22.29227642 162.08713831 20.58101351 162.10700007 18.87109375 162.09765625 C17.31938477 162.09282227 17.31938477 162.09282227 15.73632812 162.08789062 C14.64771484 162.07951172 13.55910156 162.07113281 12.4375 162.0625 C10.7987793 162.05573242 10.7987793 162.05573242 9.12695312 162.04882812 C6.41791505 162.03699826 3.70898401 162.02051543 1 162 C0.80519043 161.38874268 0.61038086 160.77748535 0.40966797 160.14770508 C0.01739014 158.93957153 0.01739014 158.93957153 -0.3828125 157.70703125 C-0.76783936 156.51170776 -0.76783936 156.51170776 -1.16064453 155.29223633 C-3.4719048 148.98030419 -7.47724499 144.9041919 -13.3125 141.75 C-20.30565138 139.79842287 -25.57910493 141.19342539 -32 144 C-32.99 144.391875 -33.98 144.78375 -35 145.1875 C-35.99 145.5896875 -35.99 145.5896875 -37 146 C-39.69461333 143.69733043 -42.35313669 141.35736263 -45 139 C-45.70125 138.39027344 -46.4025 137.78054687 -47.125 137.15234375 C-51.96434892 132.71302166 -51.96434892 132.71302166 -52.125 129.5 C-51.27225644 127.60501431 -50.36681613 125.73363226 -49.4375 123.875 C-47.0335924 118.4126555 -47.08353004 112.40650155 -48.62109375 106.69140625 C-50.95829042 101.19639719 -54.67567233 98.46206655 -60 96 C-62.64 95.01 -65.28 94.02 -68 93 C-68 85.08 -68 77.16 -68 69 C-65.215625 68.2265625 -65.215625 68.2265625 -62.375 67.4375 C-55.28599086 65.08007007 -52.33631278 61.92925332 -48.625 55.6875 C-46.7714849 47.71738507 -47.82014525 42.18103391 -52.1015625 35.2265625 C-53 33 -53 33 -52.24609375 31.06298828 C-50.98710666 28.97865425 -49.69606741 27.46673275 -47.9609375 25.765625 C-47.38085938 25.19199219 -46.80078125 24.61835937 -46.203125 24.02734375 C-45.59984375 23.44082031 -44.9965625 22.85429688 -44.375 22.25 C-43.76398437 21.64800781 -43.15296875 21.04601562 -42.5234375 20.42578125 C-41.02011376 18.94594695 -39.51065144 17.47235324 -38 16 C-34.84588008 17.00199942 -32.10839518 17.9359483 -29.25 19.625 C-23.94280048 21.87035364 -19.03881534 21.95203392 -13.53125 20.2265625 C-6.97469818 17.14498314 -4.4772106 12.61584358 -2 6 C-1.34 4.02 -0.68 2.04 0 0 Z " fill="#314B5B" transform="translate(88,19)"/>
<path d="M0 0 C0.95132813 -0.020625 1.90265625 -0.04125 2.8828125 -0.0625 C9.24605744 -0.0973671 14.37621688 0.81527124 20.25 3.25 C21.29027344 3.67539062 22.33054687 4.10078125 23.40234375 4.5390625 C29.6839386 7.55211361 34.57243405 10.89640272 39.512146 15.81495667 C42.16806543 18.33486652 42.16806543 18.33486652 45.32208252 20.06114197 C50.30692722 23.03241816 53.68467422 25.24424681 55.30310059 30.98635864 C55.79092588 35.57826404 55.60196361 40.14889422 55.421875 44.75390625 C55.39946002 46.44492031 55.38239425 48.13601294 55.37042236 49.82713318 C55.32485656 54.25322131 55.20723787 58.67449379 55.07397461 63.09869385 C54.9506462 67.62307583 54.89629242 72.14824556 54.8359375 76.67382812 C54.70769368 85.53465466 54.50322594 94.39192518 54.25 103.25 C52.765 102.26 52.765 102.26 51.25 101.25 C50.95220947 98.33665466 50.95220947 98.33665466 51.05566406 94.55639648 C51.0695668 93.86830399 51.08346954 93.18021149 51.09779358 92.4712677 C51.12822583 90.97389282 51.16458027 89.47662947 51.20609283 87.9795208 C51.2866442 84.78839699 51.31235331 81.59760651 51.34092331 78.40566349 C51.39437939 72.46244992 51.46822365 66.52179529 51.64404297 60.58081055 C51.76425107 56.4472196 51.81021015 52.31838719 51.80852509 48.18312263 C51.82148414 46.6131332 51.8613562 45.04311198 51.92945099 43.47454643 C52.1438485 38.35966565 52.08550071 34.07507187 50.25 29.25 C46.87433799 25.98165007 42.80942554 24.13178202 38.57342529 22.22254944 C35.25 20.25 35.25 20.25 34.4085083 17.07249451 C34.35620056 16.14107132 34.30389282 15.20964813 34.25 14.25 C33.26 13.755 33.26 13.755 32.25 13.25 C32.25 14.9 32.25 16.55 32.25 18.25 C30.27 17.92 28.29 17.59 26.25 17.25 C26.25 14.61 26.25 11.97 26.25 9.25 C25.26 9.25 24.27 9.25 23.25 9.25 C23.25 11.56 23.25 13.87 23.25 16.25 C21.27 15.92 19.29 15.59 17.25 15.25 C17.25 12.94 17.25 10.63 17.25 8.25 C16.26 8.25 15.27 8.25 14.25 8.25 C14.25 10.56 14.25 12.87 14.25 15.25 C12.6 15.25 10.95 15.25 9.25 15.25 C8.940625 14.445625 8.63125 13.64125 8.3125 12.8125 C7.48664655 10.35919595 7.48664655 10.35919595 6.25 9.25 C3.25 9.08333333 3.25 9.08333333 0.25 9.25 C-1.42335996 10.92335996 -0.86962895 12.96387909 -0.87442017 15.19747925 C-0.87082489 15.9045401 -0.86722961 16.61160095 -0.86352539 17.34008789 C-0.86367142 18.08150528 -0.86381744 18.82292267 -0.8639679 19.58680725 C-0.86326865 22.04878621 -0.85547574 24.51069043 -0.84765625 26.97265625 C-0.84579211 28.67516539 -0.84436819 30.37767507 -0.84336853 32.08018494 C-0.83954302 36.56993073 -0.82971247 41.05964438 -0.81866455 45.54937744 C-0.80845113 50.12731491 -0.80387106 54.70525756 -0.79882812 59.28320312 C-0.78809022 68.27214957 -0.77101341 77.26107212 -0.75 86.25 C-0.73969254 85.35241974 -0.72938507 84.45483948 -0.71876526 83.53005981 C-0.62090898 75.08354966 -0.51841162 66.63711147 -0.41066074 58.19072151 C-0.35542582 53.84803965 -0.30200491 49.50535105 -0.25268555 45.16259766 C-0.20505039 40.97395735 -0.15270789 36.78540022 -0.09705925 32.59685898 C-0.07663185 30.99644916 -0.0579194 29.39601653 -0.04092598 27.79556656 C-0.01689045 25.55910216 0.01316512 23.32279553 0.04467773 21.08642578 C0.06022202 19.81179474 0.0757663 18.5371637 0.09178162 17.22390747 C0.25 14.25 0.25 14.25 1.25 12.25 C2.57 12.58 3.89 12.91 5.25 13.25 C5.25 37.67 5.25 62.09 5.25 87.25 C3.6 87.25 1.95 87.25 0.25 87.25 C0.25 88.57 0.25 89.89 0.25 91.25 C1.24 91.58 2.23 91.91 3.25 92.25 C2.6875 95.125 2.6875 95.125 1.25 98.25 C-2.1875 99.375 -2.1875 99.375 -5.75 100.25 C-7.69321211 102.22343865 -7.69321211 102.22343865 -8.75 104.25 C-6.67898212 106.32101788 -2.40798041 105.43513468 0.4375 105.4375 C1.57155273 105.45586914 1.57155273 105.45586914 2.72851562 105.47460938 C7.37110241 105.48668896 10.83185455 104.77148055 15.25 103.25 C26.35856719 102.16873578 36.17905938 103.1838256 46.25 108.25 C46.58 108.91 46.91 109.57 47.25 110.25 C37.25 108.25 37.25 108.25 34.61328125 107.703125 C28.00023401 106.43516884 23.26969224 107.75000874 17.19140625 110.27734375 C3.13698625 114.92482128 -12.44608559 113.06636652 -25.75 107.25 C-26.62269531 106.69570312 -27.49539062 106.14140625 -28.39453125 105.5703125 C-31.06388527 104.07405767 -32.20769395 103.98601424 -35.1875 104.4375 C-35.95835938 104.55351562 -36.72921875 104.66953125 -37.5234375 104.7890625 C-40.36172403 105.37663761 -43.04612909 106.21004965 -45.75 107.25 C-46.79449911 104.11650268 -46.68423645 103.26031744 -45.75 100.25 C-46.513125 100.559375 -47.27625 100.86875 -48.0625 101.1875 C-49.93789677 101.92893593 -51.83684652 102.61228217 -53.75 103.25 C-54.02862184 93.34934238 -54.24154041 83.44962349 -54.37174606 73.5458374 C-54.4342575 68.94630031 -54.51895184 64.34945331 -54.65527344 59.75146484 C-54.78613125 55.30972124 -54.85749877 50.87055536 -54.88852692 46.42703247 C-54.91062081 44.73625082 -54.9537743 43.04560325 -55.01876068 41.35592651 C-55.21327565 36.08655014 -55.21154376 31.34509224 -53.75 26.25 C-50.18265161 22.52382619 -46.30622429 20.55210822 -41.75 18.25 C-39.68182169 16.44435323 -39.68182169 16.44435323 -38.125 14.625 C-27.99413703 3.83022126 -14.24197879 0.07595722 0 0 Z " fill="#72A55D" transform="translate(100.75,43.75)"/>
<path d="M0 0 C3.0625 0.3125 3.0625 0.3125 4.9375 1.5625 C6.0625 3.3125 6.0625 3.3125 6.0625 7.3125 C7.7125 7.3125 9.3625 7.3125 11.0625 7.3125 C11.0625 5.0025 11.0625 2.6925 11.0625 0.3125 C12.0525 0.3125 13.0425 0.3125 14.0625 0.3125 C14.0625 2.6225 14.0625 4.9325 14.0625 7.3125 C17.0325 7.8075 17.0325 7.8075 20.0625 8.3125 C20.0625 6.0025 20.0625 3.6925 20.0625 1.3125 C21.0525 1.3125 22.0425 1.3125 23.0625 1.3125 C23.0625 3.9525 23.0625 6.5925 23.0625 9.3125 C25.0425 9.6425 27.0225 9.9725 29.0625 10.3125 C29.0625 8.6625 29.0625 7.0125 29.0625 5.3125 C30.0525 5.6425 31.0425 5.9725 32.0625 6.3125 C32.11792969 7.23675781 32.17335937 8.16101562 32.23046875 9.11328125 C32.74802532 12.45799435 32.74802532 12.45799435 35.42578125 14.10546875 C36.88564453 14.79576172 36.88564453 14.79576172 38.375 15.5 C45.85665028 19.12595334 45.85665028 19.12595334 48.0625 21.3125 C48.57475281 24.38647461 48.57475281 24.38647461 48.5925293 28.21484375 C48.60126068 28.91272003 48.60999207 29.61059631 48.61898804 30.32962036 C48.64338698 32.63667432 48.63995177 34.94283332 48.63671875 37.25 C48.64916138 38.85279877 48.66349491 40.45558388 48.67964172 42.05834961 C48.71771226 46.27895917 48.73286212 50.49933399 48.74243164 54.72009277 C48.76215519 61.47604454 48.81900692 68.23181683 48.87119484 74.98757935 C48.88655018 77.34907603 48.89373443 79.71048365 48.89933777 82.07202148 C48.90635413 83.51806684 48.91345506 84.96411179 48.9206543 86.41015625 C48.92413376 87.67351807 48.92761322 88.93687988 48.93119812 90.23852539 C48.92283135 93.35258489 48.92283135 93.35258489 50.0625 96.3125 C50.7225 96.3125 51.3825 96.3125 52.0625 96.3125 C52.0625 70.9025 52.0625 45.4925 52.0625 19.3125 C52.3925 19.3125 52.7225 19.3125 53.0625 19.3125 C53.3925 43.7325 53.7225 68.1525 54.0625 93.3125 C54.7225 93.3125 55.3825 93.3125 56.0625 93.3125 C56.0625 94.3025 56.0625 95.2925 56.0625 96.3125 C56.7225 95.9825 57.3825 95.6525 58.0625 95.3125 C58.58571674 99.461301 58.35854186 100.9274948 55.76171875 104.3046875 C54.77314055 105.28138693 53.76858195 106.24213264 52.75 107.1875 C52.25048828 107.68507813 51.75097656 108.18265625 51.23632812 108.6953125 C47.48498669 112.3125 47.48498669 112.3125 44.0625 112.3125 C44.0625 111.3225 44.0625 110.3325 44.0625 109.3125 C43.0725 108.8175 43.0725 108.8175 42.0625 108.3125 C42.3925 106.6625 42.7225 105.0125 43.0625 103.3125 C45.3725 103.3125 47.6825 103.3125 50.0625 103.3125 C49.4025 102.3225 48.7425 101.3325 48.0625 100.3125 C47.7325 100.9725 47.4025 101.6325 47.0625 102.3125 C44.62717462 101.79948957 42.51364787 101.08349877 40.20703125 100.12109375 C33.28981703 97.27473714 27.51148552 95.84329527 20.0625 95.875 C19.35714111 95.87749756 18.65178223 95.87999512 17.92504883 95.88256836 C14.77262179 95.97304531 12.09992237 96.29972887 9.109375 97.3203125 C5.11594587 98.62073686 1.48327876 98.64288499 -2.6875 98.625 C-3.45449219 98.64111328 -4.22148438 98.65722656 -5.01171875 98.67382812 C-7.234375 98.67578125 -7.234375 98.67578125 -10.9375 98.3125 C-11.5975 97.3225 -12.2575 96.3325 -12.9375 95.3125 C-4.64802632 88.3125 -4.64802632 88.3125 -0.9375 88.3125 C-0.9375 86.9925 -0.9375 85.6725 -0.9375 84.3125 C-1.5975 83.9825 -2.2575 83.6525 -2.9375 83.3125 C-2.9375 81.9925 -2.9375 80.6725 -2.9375 79.3125 C-1.2875 79.3125 0.3625 79.3125 2.0625 79.3125 C1.7325 54.8925 1.4025 30.4725 1.0625 5.3125 C0.0725 4.9825 -0.9175 4.6525 -1.9375 4.3125 C-1.94780746 5.22181274 -1.95811493 6.13112549 -1.96873474 7.06799316 C-2.06692958 15.65978975 -2.16947417 24.25152124 -2.27683926 32.84320831 C-2.33187786 37.25970599 -2.38526607 41.67621048 -2.43481445 46.09277344 C-2.48274082 50.35924171 -2.5350914 54.62563535 -2.59044075 58.89201355 C-2.61073696 60.51537707 -2.62946995 62.13876096 -2.64657402 63.76216125 C-2.67090262 66.04529125 -2.70091448 68.32828394 -2.73217773 70.61132812 C-2.74772202 71.90816528 -2.7632663 73.20500244 -2.77928162 74.5411377 C-2.94646367 78.52616203 -3.39079794 82.36382033 -3.9375 86.3125 C-4.2675 86.3125 -4.5975 86.3125 -4.9375 86.3125 C-4.98377069 75.39481971 -5.01934233 64.47716262 -5.04112434 53.55940437 C-5.0515768 48.49025137 -5.06576257 43.42116527 -5.08837891 38.35205078 C-5.11005528 33.46320815 -5.1220576 28.57443002 -5.12725449 23.68554306 C-5.13095963 21.81715758 -5.13819449 19.94877577 -5.14896011 18.08041763 C-5.16340594 15.47036261 -5.16548086 12.86057663 -5.16455078 10.25048828 C-5.17533661 9.08308105 -5.17533661 9.08308105 -5.18634033 7.89208984 C-5.15788611 0.54871129 -5.15788611 0.54871129 0 0 Z " fill="#2D4858" transform="translate(103.9375,51.6875)"/>
<path d="M0 0 C0.95132813 -0.020625 1.90265625 -0.04125 2.8828125 -0.0625 C9.24605744 -0.0973671 14.37621688 0.81527124 20.25 3.25 C21.29027344 3.67539062 22.33054687 4.10078125 23.40234375 4.5390625 C29.6839386 7.55211361 34.57243405 10.89640272 39.512146 15.81495667 C42.16806543 18.33486652 42.16806543 18.33486652 45.32208252 20.06114197 C50.30692722 23.03241816 53.68467422 25.24424681 55.30310059 30.98635864 C55.79092588 35.57826404 55.60196361 40.14889422 55.421875 44.75390625 C55.39946002 46.44492031 55.38239425 48.13601294 55.37042236 49.82713318 C55.32485656 54.25322131 55.20723787 58.67449379 55.07397461 63.09869385 C54.9506462 67.62307583 54.89629242 72.14824556 54.8359375 76.67382812 C54.70769368 85.53465466 54.50322594 94.39192518 54.25 103.25 C52.765 102.26 52.765 102.26 51.25 101.25 C50.95220947 98.33665466 50.95220947 98.33665466 51.05566406 94.55639648 C51.0695668 93.86830399 51.08346954 93.18021149 51.09779358 92.4712677 C51.12822583 90.97389282 51.16458027 89.47662947 51.20609283 87.9795208 C51.2866442 84.78839699 51.31235331 81.59760651 51.34092331 78.40566349 C51.39437939 72.46244992 51.46822365 66.52179529 51.64404297 60.58081055 C51.76425107 56.4472196 51.81021015 52.31838719 51.80852509 48.18312263 C51.82148414 46.6131332 51.8613562 45.04311198 51.92945099 43.47454643 C52.1438485 38.35966565 52.08550071 34.07507187 50.25 29.25 C46.87433799 25.98165007 42.80942554 24.13178202 38.57342529 22.22254944 C35.25 20.25 35.25 20.25 34.4085083 17.07249451 C34.35620056 16.14107132 34.30389282 15.20964813 34.25 14.25 C33.26 13.755 33.26 13.755 32.25 13.25 C32.25 14.9 32.25 16.55 32.25 18.25 C30.27 17.92 28.29 17.59 26.25 17.25 C26.25 14.61 26.25 11.97 26.25 9.25 C25.26 9.25 24.27 9.25 23.25 9.25 C23.25 11.56 23.25 13.87 23.25 16.25 C21.27 15.92 19.29 15.59 17.25 15.25 C17.25 12.94 17.25 10.63 17.25 8.25 C16.26 8.25 15.27 8.25 14.25 8.25 C14.25 10.56 14.25 12.87 14.25 15.25 C12.6 15.25 10.95 15.25 9.25 15.25 C8.940625 14.445625 8.63125 13.64125 8.3125 12.8125 C7.48664655 10.35919595 7.48664655 10.35919595 6.25 9.25 C3.3342309 8.83297878 3.3342309 8.83297878 0.25 9.25 C-0.32041016 10.22646484 -0.32041016 10.22646484 -0.90234375 11.22265625 C-3.07173167 13.60302059 -3.66434775 13.59433151 -6.76171875 13.859375 C-8.31960737 13.92566813 -9.8784554 13.97186302 -11.4375 14 C-12.23478516 14.02964844 -13.03207031 14.05929688 -13.85351562 14.08984375 C-15.81846749 14.16044082 -17.78423977 14.20749708 -19.75 14.25 C-19.75 12.27 -19.75 10.29 -19.75 8.25 C-21.07 8.25 -22.39 8.25 -23.75 8.25 C-23.75 10.56 -23.75 12.87 -23.75 15.25 C-24.71679688 15.60191406 -25.68359375 15.95382813 -26.6796875 16.31640625 C-27.99506903 16.81437212 -29.31015746 17.31311269 -30.625 17.8125 C-31.57246094 18.1537793 -31.57246094 18.1537793 -32.5390625 18.50195312 C-34.66726355 19.32131053 -36.69291515 20.2645424 -38.75 21.25 C-39.59522217 21.63913574 -40.44044434 22.02827148 -41.3112793 22.42919922 C-44.32578453 24.11763555 -46.45833823 25.6487458 -48.75 28.25 C-50.20500346 33.42414007 -50.05812678 38.48835949 -49.9453125 43.80859375 C-49.94910376 45.32318296 -49.95729974 46.83776696 -49.96969604 48.35231018 C-49.99043163 52.32020802 -49.95169753 56.28533844 -49.90020752 60.25286865 C-49.85821573 64.30858409 -49.87296221 68.36405965 -49.8828125 72.41992188 C-49.89380475 80.36413169 -49.84192073 88.30631727 -49.75 96.25 C-48.65091309 95.61610352 -47.55182617 94.98220703 -46.41943359 94.32910156 C-35.51802879 88.04173512 -26.94494973 88.25 -13.75 88.25 C-13.75 67.13 -13.75 46.01 -13.75 24.25 C-14.41 24.25 -15.07 24.25 -15.75 24.25 C-15.42 22.27 -15.09 20.29 -14.75 18.25 C-12.77 18.25 -10.79 18.25 -8.75 18.25 C-8.255 21.22 -8.255 21.22 -7.75 24.25 C-8.41 24.25 -9.07 24.25 -9.75 24.25 C-9.75 47.02 -9.75 69.79 -9.75 93.25 C-7.44 93.91 -5.13 94.57 -2.75 95.25 C-2.75 68.85 -2.75 42.45 -2.75 15.25 C-2.42 15.25 -2.09 15.25 -1.75 15.25 C-1.42 38.68 -1.09 62.11 -0.75 86.25 C-0.68941406 81.07570313 -0.62882812 75.90140625 -0.56640625 70.5703125 C-0.52592565 67.29816847 -0.48515945 64.02603304 -0.44335938 60.75390625 C-0.37699627 55.55683257 -0.31170819 50.35976056 -0.25268555 45.16259766 C-0.20505039 40.97395735 -0.15270789 36.78540022 -0.09705925 32.59685898 C-0.07663185 30.99644916 -0.0579194 29.39601653 -0.04092598 27.79556656 C-0.01689045 25.55910216 0.01316512 23.32279553 0.04467773 21.08642578 C0.06022202 19.81179474 0.0757663 18.5371637 0.09178162 17.22390747 C0.25 14.25 0.25 14.25 1.25 12.25 C2.57 12.58 3.89 12.91 5.25 13.25 C5.25 37.67 5.25 62.09 5.25 87.25 C3.6 87.25 1.95 87.25 0.25 87.25 C0.25 88.57 0.25 89.89 0.25 91.25 C1.24 91.58 2.23 91.91 3.25 92.25 C2.6875 95.125 2.6875 95.125 1.25 98.25 C-2.1875 99.375 -2.1875 99.375 -5.75 100.25 C-7.69321211 102.22343865 -7.69321211 102.22343865 -8.75 104.25 C-6.67898212 106.32101788 -2.40798041 105.43513468 0.4375 105.4375 C1.57155273 105.45586914 1.57155273 105.45586914 2.72851562 105.47460938 C7.37110241 105.48668896 10.83185455 104.77148055 15.25 103.25 C26.35856719 102.16873578 36.17905938 103.1838256 46.25 108.25 C46.58 108.91 46.91 109.57 47.25 110.25 C37.25 108.25 37.25 108.25 34.61328125 107.703125 C28.00023401 106.43516884 23.26969224 107.75000874 17.19140625 110.27734375 C3.13698625 114.92482128 -12.44608559 113.06636652 -25.75 107.25 C-26.62269531 106.69570312 -27.49539062 106.14140625 -28.39453125 105.5703125 C-31.06388527 104.07405767 -32.20769395 103.98601424 -35.1875 104.4375 C-35.95835938 104.55351562 -36.72921875 104.66953125 -37.5234375 104.7890625 C-40.36172403 105.37663761 -43.04612909 106.21004965 -45.75 107.25 C-46.79449911 104.11650268 -46.68423645 103.26031744 -45.75 100.25 C-46.513125 100.559375 -47.27625 100.86875 -48.0625 101.1875 C-49.93789677 101.92893593 -51.83684652 102.61228217 -53.75 103.25 C-54.02862184 93.34934238 -54.24154041 83.44962349 -54.37174606 73.5458374 C-54.4342575 68.94630031 -54.51895184 64.34945331 -54.65527344 59.75146484 C-54.78613125 55.30972124 -54.85749877 50.87055536 -54.88852692 46.42703247 C-54.91062081 44.73625082 -54.9537743 43.04560325 -55.01876068 41.35592651 C-55.21327565 36.08655014 -55.21154376 31.34509224 -53.75 26.25 C-50.18265161 22.52382619 -46.30622429 20.55210822 -41.75 18.25 C-39.68182169 16.44435323 -39.68182169 16.44435323 -38.125 14.625 C-27.99413703 3.83022126 -14.24197879 0.07595722 0 0 Z " fill="#395865" transform="translate(100.75,43.75)"/>
<path d="M0 0 C2.97 0.495 2.97 0.495 6 1 C6.02541267 8.27741752 6.04289324 15.55482354 6.05493164 22.83227539 C6.05995179 25.3065636 6.06676926 27.78084885 6.07543945 30.25512695 C6.08760656 33.81722748 6.09325159 37.37928869 6.09765625 40.94140625 C6.10281754 42.04271378 6.10797882 43.1440213 6.11329651 44.27870178 C6.113685 49.6307755 5.94799094 54.72864553 5 60 C6.98 60.33 8.96 60.66 11 61 C11 56.38 11 51.76 11 47 C14.13349732 45.95550089 14.98968256 46.06576355 18 47 C18 46.34 18 45.68 18 45 C18.66 45 19.32 45 20 45 C19.83701416 43.99445068 19.67402832 42.98890137 19.50610352 41.95288086 C19.02073787 38.1619715 18.88595508 34.57246647 18.90234375 30.75390625 C18.9037587 30.09792953 18.90517365 29.44195282 18.90663147 28.76609802 C18.91216969 26.69818298 18.92470998 24.63038158 18.9375 22.5625 C18.94252301 21.14909012 18.9470845 19.73567852 18.95117188 18.32226562 C18.96211874 14.88147432 18.97933962 11.44074828 19 8 C21.41796875 8.37109375 21.41796875 8.37109375 24 9 C25.3125 11.0625 25.3125 11.0625 26 13 C26.66 13 27.32 13 28 13 C28 13.66 28 14.32 28 15 C26.02 15 24.04 15 22 15 C22.18464366 19.34184202 22.18464366 19.34184202 24 23 C24.11359989 25.72983389 24.16418956 28.43336472 24.16796875 31.1640625 C24.17296135 32.40221207 24.17296135 32.40221207 24.17805481 33.66537476 C24.18313038 35.41900067 24.18546294 37.17263628 24.18530273 38.92626953 C24.1874739 41.59293946 24.20557991 44.25918545 24.22460938 46.92578125 C24.22754635 48.63020692 24.22952911 50.33463456 24.23046875 52.0390625 C24.23765427 52.83100006 24.24483978 53.62293762 24.25224304 54.43887329 C24.23235191 59.33326461 23.55739332 63.35443886 22 68 C24.97 67.505 24.97 67.505 28 67 C28 52.48 28 37.96 28 23 C28.66 22.67 29.32 22.34 30 22 C30 20.02 30 18.04 30 16 C30.66 16 31.32 16 32 16 C32 37.78 32 59.56 32 82 C27.05360697 80.76340174 22.43118561 79.49802693 17.625 77.9375 C8.39711353 75.33277711 8.39711353 75.33277711 -8 75 C-8 50.91 -8 26.82 -8 2 C-6.68 2 -5.36 2 -4 2 C-4 16.19 -4 30.38 -4 45 C-2.02 45 -0.04 45 2 45 C1.67402832 44.36553955 1.34805664 43.7310791 1.01220703 43.07739258 C-0.35768668 38.91253242 -0.24824714 35.11617371 -0.1953125 30.76171875 C-0.1924826 29.88095169 -0.18965271 29.00018463 -0.18673706 28.09272766 C-0.17557833 25.29084455 -0.15048171 22.48928584 -0.125 19.6875 C-0.11496463 17.78320775 -0.10583975 15.87891048 -0.09765625 13.97460938 C-0.07565309 9.31628203 -0.04115294 4.65819594 0 0 Z " fill="#057CB5" transform="translate(118,59)"/>
<path d="M0 0 C0.95132813 -0.020625 1.90265625 -0.04125 2.8828125 -0.0625 C9.24605744 -0.0973671 14.37621688 0.81527124 20.25 3.25 C21.29027344 3.67539062 22.33054687 4.10078125 23.40234375 4.5390625 C29.6839386 7.55211361 34.57243405 10.89640272 39.512146 15.81495667 C42.16806543 18.33486652 42.16806543 18.33486652 45.32208252 20.06114197 C50.30692722 23.03241816 53.68467422 25.24424681 55.30310059 30.98635864 C55.79092588 35.57826404 55.60196361 40.14889422 55.421875 44.75390625 C55.39946002 46.44492031 55.38239425 48.13601294 55.37042236 49.82713318 C55.32485656 54.25322131 55.20723787 58.67449379 55.07397461 63.09869385 C54.9506462 67.62307583 54.89629242 72.14824556 54.8359375 76.67382812 C54.70769368 85.53465466 54.50322594 94.39192518 54.25 103.25 C52.765 102.26 52.765 102.26 51.25 101.25 C50.95220947 98.33665466 50.95220947 98.33665466 51.05566406 94.55639648 C51.0695668 93.86830399 51.08346954 93.18021149 51.09779358 92.4712677 C51.12822583 90.97389282 51.16458027 89.47662947 51.20609283 87.9795208 C51.2866442 84.78839699 51.31235331 81.59760651 51.34092331 78.40566349 C51.39437939 72.46244992 51.46822365 66.52179529 51.64404297 60.58081055 C51.76425107 56.4472196 51.81021015 52.31838719 51.80852509 48.18312263 C51.82148414 46.6131332 51.8613562 45.04311198 51.92945099 43.47454643 C52.1438485 38.35966565 52.08550071 34.07507187 50.25 29.25 C46.87433799 25.98165007 42.80942554 24.13178202 38.57342529 22.22254944 C35.25 20.25 35.25 20.25 34.4085083 17.07249451 C34.35620056 16.14107132 34.30389282 15.20964813 34.25 14.25 C33.26 13.755 33.26 13.755 32.25 13.25 C32.25 14.9 32.25 16.55 32.25 18.25 C30.27 17.92 28.29 17.59 26.25 17.25 C26.25 14.61 26.25 11.97 26.25 9.25 C25.26 9.25 24.27 9.25 23.25 9.25 C23.25 11.56 23.25 13.87 23.25 16.25 C21.27 15.92 19.29 15.59 17.25 15.25 C17.25 12.94 17.25 10.63 17.25 8.25 C16.26 8.25 15.27 8.25 14.25 8.25 C14.25 10.56 14.25 12.87 14.25 15.25 C12.6 15.25 10.95 15.25 9.25 15.25 C8.940625 14.445625 8.63125 13.64125 8.3125 12.8125 C7.48664655 10.35919595 7.48664655 10.35919595 6.25 9.25 C3.3342309 8.83297878 3.3342309 8.83297878 0.25 9.25 C-0.32041016 10.22646484 -0.32041016 10.22646484 -0.90234375 11.22265625 C-3.07173167 13.60302059 -3.66434775 13.59433151 -6.76171875 13.859375 C-8.31960737 13.92566813 -9.8784554 13.97186302 -11.4375 14 C-12.23478516 14.02964844 -13.03207031 14.05929688 -13.85351562 14.08984375 C-15.81846749 14.16044082 -17.78423977 14.20749708 -19.75 14.25 C-19.75 12.27 -19.75 10.29 -19.75 8.25 C-21.07 8.25 -22.39 8.25 -23.75 8.25 C-23.75 10.56 -23.75 12.87 -23.75 15.25 C-24.71679688 15.60191406 -25.68359375 15.95382813 -26.6796875 16.31640625 C-27.99506903 16.81437212 -29.31015746 17.31311269 -30.625 17.8125 C-31.57246094 18.1537793 -31.57246094 18.1537793 -32.5390625 18.50195312 C-34.66726355 19.32131053 -36.69291515 20.2645424 -38.75 21.25 C-39.59522217 21.63913574 -40.44044434 22.02827148 -41.3112793 22.42919922 C-44.32578453 24.11763555 -46.45833823 25.6487458 -48.75 28.25 C-50.20500346 33.42414007 -50.05812678 38.48835949 -49.9453125 43.80859375 C-49.94910376 45.32318296 -49.95729974 46.83776696 -49.96969604 48.35231018 C-49.99043163 52.32020802 -49.95169753 56.28533844 -49.90020752 60.25286865 C-49.85821573 64.30858409 -49.87296221 68.36405965 -49.8828125 72.41992188 C-49.89380475 80.36413169 -49.84192073 88.30631727 -49.75 96.25 C-48.65091309 95.61610352 -47.55182617 94.98220703 -46.41943359 94.32910156 C-35.74016556 88.16985212 -25.73872046 87.73863278 -13.75 88.25 C-14.245 90.23 -14.245 90.23 -14.75 92.25 C-15.575 92.18039063 -16.4 92.11078125 -17.25 92.0390625 C-30.12606421 91.43549699 -41.64187974 95.06723598 -51.75 103.25 C-52.41 103.25 -53.07 103.25 -53.75 103.25 C-54.02862184 93.34934238 -54.24154041 83.44962349 -54.37174606 73.5458374 C-54.4342575 68.94630031 -54.51895184 64.34945331 -54.65527344 59.75146484 C-54.78613125 55.30972124 -54.85749877 50.87055536 -54.88852692 46.42703247 C-54.91062081 44.73625082 -54.9537743 43.04560325 -55.01876068 41.35592651 C-55.21327565 36.08655014 -55.21154376 31.34509224 -53.75 26.25 C-50.18265161 22.52382619 -46.30622429 20.55210822 -41.75 18.25 C-39.68182169 16.44435323 -39.68182169 16.44435323 -38.125 14.625 C-27.99413703 3.83022126 -14.24197879 0.07595722 0 0 Z " fill="#B5BEB7" transform="translate(100.75,43.75)"/>
<path d="M0 0 C0.99 0 1.98 0 3 0 C3 2.64 3 5.28 3 8 C5.97 8.495 5.97 8.495 9 9 C9 7.35 9 5.7 9 4 C9.99 4.33 10.98 4.66 12 5 C12.05542969 5.92425781 12.11085937 6.84851562 12.16796875 7.80078125 C12.68552532 11.14549435 12.68552532 11.14549435 15.36328125 12.79296875 C16.33652344 13.25316406 17.30976563 13.71335937 18.3125 14.1875 C25.8120225 17.82211504 25.8120225 17.82211504 28 20 C28.48101807 23.09416199 28.48101807 23.09416199 28.45410156 26.94995117 C28.45468567 27.65264633 28.45526978 28.35534149 28.45587158 29.07933044 C28.4530857 31.40104649 28.42197257 33.72147715 28.390625 36.04296875 C28.38316434 37.65293171 28.37747058 39.26290375 28.37347412 40.87287903 C28.35820384 45.10966071 28.31891056 49.3458936 28.2746582 53.5824585 C28.23373523 57.90580826 28.2154695 62.22924674 28.1953125 66.55273438 C28.15241717 75.03540806 28.08414959 83.51763576 28 92 C25.36 90.68 22.72 89.36 20 88 C24 87 24 87 26 88 C26 66.22 26 44.44 26 22 C25.34 22 24.68 22 24 22 C24.33 23.98 24.66 25.96 25 28 C24.01 28.33 23.02 28.66 22 29 C22.01474869 29.54901474 22.02949738 30.09802948 22.04469299 30.66368103 C22.19664038 36.35694022 22.34150373 42.05034781 22.48217773 47.74389648 C22.53568206 49.87122205 22.59101764 51.99850236 22.64819336 54.12573242 C22.72986981 57.1761702 22.80504681 60.22670797 22.87890625 63.27734375 C22.90594131 64.23462875 22.93297638 65.19191376 22.96083069 66.1782074 C22.98092697 67.05904495 23.00102325 67.93988251 23.02172852 68.84741211 C23.04171402 69.62684677 23.06169952 70.40628143 23.08229065 71.20933533 C23 73 23 73 22 74 C20.00041636 74.04080783 17.99954746 74.04254356 16 74 C15.95745644 72.00045254 15.95919217 69.99958364 16 68 C16.33 67.67 16.66 67.34 17 67 C17.10103255 64.20006403 17.13970088 61.42531356 17.1328125 58.625 C17.13376923 57.78533691 17.13472595 56.94567383 17.13571167 56.08056641 C17.13639348 54.30175705 17.13453917 52.52294523 17.13037109 50.74414062 C17.12502283 48.01166224 17.13031605 45.27934824 17.13671875 42.546875 C17.13605797 40.8229163 17.13477681 39.09895771 17.1328125 37.375 C17.13483673 36.55209473 17.13686096 35.72918945 17.13894653 34.88134766 C17.4857546 31.13620134 17.4857546 31.13620134 16 28 C15.95907063 25.66702567 15.95758277 23.33294775 16 21 C17.98 21 19.96 21 22 21 C22 20.34 22 19.68 22 19 C21.34 19 20.68 19 20 19 C18.66666667 17.66666667 17.33333333 16.33333333 16 15 C15.01 14.67 14.02 14.34 13 14 C13.33 26.21 13.66 38.42 14 51 C13.34 51 12.68 51 12 51 C12 51.66 12 52.32 12 53 C10.02 53 8.04 53 6 53 C5.67 57.62 5.34 62.24 5 67 C3.02 67 1.04 67 -1 67 C-1.33 66.67 -1.66 66.34 -2 66 C-1.76191093 64.45360382 -1.52226931 62.90744029 -1.27786255 61.36203003 C-0.65611531 56.07673461 -0.75441169 50.72568402 -0.68359375 45.41015625 C-0.66281265 44.11049423 -0.64203156 42.81083221 -0.62062073 41.4717865 C-0.56575967 38.03763825 -0.5161938 34.60343375 -0.46777344 31.16918945 C-0.4172936 27.6563626 -0.36174661 24.14361616 -0.30664062 20.63085938 C-0.19949989 13.75397611 -0.09795943 6.87702002 0 0 Z " fill="#187AAA" transform="translate(124,53)"/>
<path d="M0 0 C1.28112423 3.88630028 1.09297768 7.76001106 1.02172852 11.79785156 C1.01212097 12.57872131 1.00251343 13.35959106 0.99261475 14.16412354 C0.95968955 16.73971762 0.91933264 19.31513864 0.87890625 21.890625 C0.8545988 23.67852166 0.83075555 25.4664247 0.80735779 27.2543335 C0.74457908 31.95616925 0.67549484 36.65789203 0.60510254 41.35961914 C0.53436297 46.15896467 0.46957966 50.95839019 0.40429688 55.7578125 C0.27536463 65.1719629 0.13977165 74.58600473 0 84 C-2.31 83.34 -4.62 82.68 -7 82 C-7 59.23 -7 36.46 -7 13 C-6.34 13 -5.68 13 -5 13 C-5.33 11.02 -5.66 9.04 -6 7 C-7.98 7 -9.96 7 -12 7 C-12.33 8.98 -12.66 10.96 -13 13 C-12.34 13 -11.68 13 -11 13 C-11 34.12 -11 55.24 -11 77 C-16.28 77 -21.56 77 -27 77 C-27 64.79 -27 52.58 -27 40 C-26.34 40.33 -25.68 40.66 -25 41 C-24.97531143 45.5206665 -24.95714551 50.0412939 -24.94506836 54.56201172 C-24.94003448 56.10043013 -24.93320692 57.63884375 -24.92456055 59.17724609 C-24.91245361 61.38640526 -24.90676231 63.59550126 -24.90234375 65.8046875 C-24.89718246 66.49432587 -24.89202118 67.18396423 -24.88670349 67.89450073 C-24.88612829 72.77225659 -24.88612829 72.77225659 -26 75 C-24.68 75 -23.36 75 -22 75 C-21.67 73.35 -21.34 71.7 -21 70 C-19.515 69.505 -19.515 69.505 -18 69 C-17.98969254 68.17536758 -17.97938507 67.35073517 -17.96876526 66.50111389 C-17.8709612 58.74594316 -17.76847166 50.99085547 -17.66066074 43.23581791 C-17.60539527 39.24846784 -17.55196963 35.26111048 -17.50268555 31.27368164 C-17.45509524 27.42868399 -17.40275464 23.58377818 -17.34705925 19.73888969 C-17.32661143 18.26883658 -17.30790244 16.79875826 -17.29092598 15.32866096 C-17.26693536 13.27638724 -17.2368741 11.22428853 -17.20532227 9.17211914 C-17.18977798 8.00185684 -17.1742337 6.83159454 -17.15821838 5.62586975 C-17 3 -17 3 -16 2 C-13.30345146 1.92680379 -10.63308542 1.90757463 -7.9375 1.9375 C-7.17888672 1.94201172 -6.42027344 1.94652344 -5.63867188 1.95117188 C-3.75908129 1.9629932 -1.87953101 1.98092922 0 2 C0 1.34 0 0.68 0 0 Z " fill="#73A365" transform="translate(98,55)"/>
<path d="M0 0 C3.0625 0.3125 3.0625 0.3125 4.9375 1.5625 C6.0625 3.3125 6.0625 3.3125 6.0625 7.3125 C7.7125 7.3125 9.3625 7.3125 11.0625 7.3125 C11.0625 5.0025 11.0625 2.6925 11.0625 0.3125 C12.0525 0.3125 13.0425 0.3125 14.0625 0.3125 C14.07280746 0.89021652 14.08311493 1.46793304 14.09373474 2.06315613 C14.20200252 8.0816839 14.31658372 14.10006808 14.43481445 20.1184082 C14.47809833 22.36382032 14.51977801 24.60926396 14.55981445 26.85473633 C14.61767557 30.08424373 14.68132451 33.31359341 14.74609375 36.54296875 C14.76280624 37.54522995 14.77951874 38.54749115 14.79673767 39.5801239 C14.81668289 40.52072159 14.83662811 41.46131927 14.85717773 42.43041992 C14.88049416 43.66619026 14.88049416 43.66619026 14.90428162 44.92692566 C15.07218641 47.45854911 15.51324348 49.83789526 16.0625 52.3125 C14.0710944 52.69383299 12.06970923 53.02575582 10.0625 53.3125 C9.0625 52.3125 9.0625 52.3125 8.94224548 50.55979919 C8.9455764 49.41729454 8.9455764 49.41729454 8.94897461 48.25170898 C8.94905014 47.39089218 8.94912567 46.53007538 8.94920349 45.64317322 C8.95436478 44.70776199 8.95952606 43.77235077 8.96484375 42.80859375 C8.9662587 41.85557877 8.96767365 40.90256378 8.96913147 39.92066956 C8.97474848 36.86374835 8.98730384 33.80689923 9 30.75 C9.00501281 28.68294376 9.00957609 26.61588638 9.01367188 24.54882812 C9.02472344 19.47002412 9.04199945 14.3912743 9.0625 9.3125 C8.4025 9.3125 7.7425 9.3125 7.0625 9.3125 C6.7325 33.4025 6.4025 57.4925 6.0625 82.3125 C12.0025 82.3125 17.9425 82.3125 24.0625 82.3125 C27.45863379 83.01897657 30.06953233 83.59813364 33.1875 84.8125 C33.86941406 85.05097656 34.55132812 85.28945312 35.25390625 85.53515625 C36.86575426 86.10270837 38.46587618 86.70343369 40.0625 87.3125 C36.21094474 88.59635175 34.86643181 87.60440137 31.0625 86.3125 C23.25057431 84.91751327 13.63934098 83.78688634 6.0625 86.3125 C5.381875 85.3225 5.381875 85.3225 4.6875 84.3125 C4.15125 83.6525 3.615 82.9925 3.0625 82.3125 C2.4025 82.3125 1.7425 82.3125 1.0625 82.3125 C1.0625 56.9025 1.0625 31.4925 1.0625 5.3125 C0.0725 4.9825 -0.9175 4.6525 -1.9375 4.3125 C-1.94780746 5.22181274 -1.95811493 6.13112549 -1.96873474 7.06799316 C-2.06692958 15.65978975 -2.16947417 24.25152124 -2.27683926 32.84320831 C-2.33187786 37.25970599 -2.38526607 41.67621048 -2.43481445 46.09277344 C-2.48274082 50.35924171 -2.5350914 54.62563535 -2.59044075 58.89201355 C-2.61073696 60.51537707 -2.62946995 62.13876096 -2.64657402 63.76216125 C-2.67090262 66.04529125 -2.70091448 68.32828394 -2.73217773 70.61132812 C-2.74772202 71.90816528 -2.7632663 73.20500244 -2.77928162 74.5411377 C-2.94646367 78.52616203 -3.39079794 82.36382033 -3.9375 86.3125 C-4.2675 86.3125 -4.5975 86.3125 -4.9375 86.3125 C-4.98377069 75.39481971 -5.01934233 64.47716262 -5.04112434 53.55940437 C-5.0515768 48.49025137 -5.06576257 43.42116527 -5.08837891 38.35205078 C-5.11005528 33.46320815 -5.1220576 28.57443002 -5.12725449 23.68554306 C-5.13095963 21.81715758 -5.13819449 19.94877577 -5.14896011 18.08041763 C-5.16340594 15.47036261 -5.16548086 12.86057663 -5.16455078 10.25048828 C-5.17174133 9.4722168 -5.17893188 8.69394531 -5.18634033 7.89208984 C-5.15788611 0.54871129 -5.15788611 0.54871129 0 0 Z " fill="#224D63" transform="translate(103.9375,51.6875)"/>
<path d="M0 0 C1.32 0 2.64 0 4 0 C4 23.76 4 47.52 4 72 C2.02 72.495 2.02 72.495 0 73 C0.33 73.99 0.66 74.98 1 76 C0.34 76 -0.32 76 -1 76 C-1 76.66 -1 77.32 -1 78 C-2.32 78 -3.64 78 -5 78 C-4.99476318 76.97527588 -4.98952637 75.95055176 -4.98413086 74.89477539 C-4.96608031 71.10604724 -4.9545678 67.31732291 -4.94506836 63.52856445 C-4.94002826 61.88630536 -4.93319622 60.24405077 -4.92456055 58.60180664 C-4.91248074 56.24624521 -4.90676861 53.89074291 -4.90234375 51.53515625 C-4.89718246 50.79660904 -4.89202118 50.05806183 -4.88670349 49.2971344 C-4.8865075 47.53101912 -4.93805281 45.76502854 -5 44 C-5.33 43.67 -5.66 43.34 -6 43 C-6 55.21 -6 67.42 -6 80 C-7.98 80.495 -7.98 80.495 -10 81 C-10.02505615 79.87505127 -10.0501123 78.75010254 -10.07592773 77.59106445 C-10.17028435 73.4070345 -10.27043553 69.22315964 -10.37231445 65.03930664 C-10.4155566 63.23042435 -10.45723904 61.42150405 -10.49731445 59.61254883 C-10.5552774 57.00850995 -10.61889613 54.40466045 -10.68359375 51.80078125 C-10.70030624 50.99538406 -10.71701874 50.18998688 -10.73423767 49.36018372 C-10.81868925 46.14046992 -10.9491422 43.23071842 -11.64477539 40.07495117 C-11.76199951 39.39021729 -11.87922363 38.7054834 -12 38 C-11.34 37.34 -10.68 36.68 -10 36 C-7.625 36.3125 -7.625 36.3125 -5 37 C-3.68 37.33 -2.36 37.66 -1 38 C-0.67 25.46 -0.34 12.92 0 0 Z " fill="#66965B" transform="translate(77,52)"/>
<path d="M0 0 C0.80759766 -0.02449219 1.61519531 -0.04898438 2.44726562 -0.07421875 C7.74234225 -0.09981944 10.99233161 0.90200087 15.57739258 3.47119141 C19.04352421 5.04930225 22.44256003 4.87797457 26.1875 4.75 C27.27417969 4.74806641 27.27417969 4.74806641 28.3828125 4.74609375 C32.85497313 4.67317809 36.30604254 3.81057686 40.5625 2.375 C51.67106719 1.29373578 61.49155938 2.3088256 71.5625 7.375 C72.0575 8.365 72.0575 8.365 72.5625 9.375 C62.5625 7.375 62.5625 7.375 59.92578125 6.828125 C53.31273401 5.56016884 48.58219224 6.87500874 42.50390625 9.40234375 C28.44948625 14.04982128 12.86641441 12.19136652 -0.4375 6.375 C-1.26121094 5.818125 -2.08492187 5.26125 -2.93359375 4.6875 C-6.28098465 2.9328614 -8.52849027 3.27399892 -12.25 3.6875 C-13.41144531 3.80738281 -14.57289062 3.92726562 -15.76953125 4.05078125 C-17.09017578 4.21126953 -17.09017578 4.21126953 -18.4375 4.375 C-13.68402967 -0.37847033 -6.32249639 0.01004368 0 0 Z " fill="#B3B8B6" transform="translate(75.4375,144.625)"/>
<path d="M0 0 C0.33 0 0.66 0 1 0 C1 24.09 1 48.18 1 73 C-1.475 73.495 -1.475 73.495 -4 74 C-4.04635853 66.11568572 -4.08188702 58.23142848 -4.10362434 50.34701157 C-4.11405763 46.68588188 -4.12820844 43.02484551 -4.15087891 39.36376953 C-4.17262364 35.83004083 -4.18457205 32.29640184 -4.18975449 28.76261139 C-4.19524344 26.75957783 -4.21085381 24.75658031 -4.22659302 22.75360107 C-4.22674408 21.53263733 -4.22689514 20.31167358 -4.22705078 19.05371094 C-4.231492 17.97893494 -4.23593323 16.90415894 -4.24050903 15.79681396 C-3.9977984 12.9743982 -3.40199715 11.41893433 -2 9 C-1.57848115 7.42841122 -1.2031166 5.84370918 -0.875 4.25 C-0.70742187 3.45078125 -0.53984375 2.6515625 -0.3671875 1.828125 C-0.24601562 1.22484375 -0.12484375 0.6215625 0 0 Z " fill="#70A35B" transform="translate(96,59)"/>
<path d="M0 0 C0.99 0 1.98 0 3 0 C3.01030746 0.57771652 3.02061493 1.15543304 3.03123474 1.75065613 C3.13950252 7.7691839 3.25408372 13.78756808 3.37231445 19.8059082 C3.41559833 22.05132032 3.45727801 24.29676396 3.49731445 26.54223633 C3.55517557 29.77174373 3.61882451 33.00109341 3.68359375 36.23046875 C3.70030624 37.23272995 3.71701874 38.23499115 3.73423767 39.2676239 C3.75418289 40.20822159 3.77412811 41.14881927 3.79467773 42.11791992 C3.81022202 42.94176682 3.8257663 43.76561371 3.84178162 44.61442566 C4.00968641 47.14604911 4.45074348 49.52539526 5 52 C3.0085944 52.38133299 1.00720923 52.71325582 -1 53 C-2 52 -2 52 -2.12025452 50.24729919 C-2.11803391 49.48562943 -2.11581329 48.72395966 -2.11352539 47.93920898 C-2.11341209 46.64798378 -2.11341209 46.64798378 -2.11329651 45.33067322 C-2.10813522 44.39526199 -2.10297394 43.45985077 -2.09765625 42.49609375 C-2.09553383 41.06657127 -2.09553383 41.06657127 -2.09336853 39.60816956 C-2.08775152 36.55124835 -2.07519616 33.49439923 -2.0625 30.4375 C-2.05748719 28.37044376 -2.05292391 26.30338638 -2.04882812 24.23632812 C-2.03777656 19.15752412 -2.02050055 14.0787743 -2 9 C-2.66 9 -3.32 9 -4 9 C-4.33 33.09 -4.66 57.18 -5 82 C0.94 82 6.88 82 13 82 C13 82.33 13 82.66 13 83 C6.73 83 0.46 83 -6 83 C-6 56.6 -6 30.2 -6 3 C-5.67 4.32 -5.34 5.64 -5 7 C-3.35 7 -1.7 7 0 7 C0 4.69 0 2.38 0 0 Z " fill="#1A6082" transform="translate(115,52)"/>
<path d="M0 0 C1.98 0 3.96 0 6 0 C6.33 1.98 6.66 3.96 7 6 C6.34 6 5.68 6 5 6 C5 28.77 5 51.54 5 75 C4.67 75 4.34 75 4 75 C3.505 72.525 3.505 72.525 3 70 C2.34 71.32 1.68 72.64 1 74 C1 51.56 1 29.12 1 6 C0.34 6 -0.32 6 -1 6 C-0.67 4.02 -0.34 2.04 0 0 Z " fill="#355B4E" transform="translate(86,62)"/>
<path d="M0 0 C0.33 0 0.66 0 1 0 C1 25.08 1 50.16 1 76 C2.32 75.01 3.64 74.02 5 73 C5.99 73.33 6.98 73.66 8 74 C7.34 75.98 6.68 77.96 6 80 C4.35 80 2.7 80 1 80 C1 80.66 1 81.32 1 82 C0.34 82 -0.32 82 -1 82 C-0.01 84.31 0.98 86.62 2 89 C-2.03183815 89 -2.90770743 87.58690342 -5.75 84.8125 C-6.56984375 84.03519531 -7.3896875 83.25789063 -8.234375 82.45703125 C-10 80 -10 80 -9.953125 77.63671875 C-9 75 -9 75 -7.44140625 71.70703125 C-5.76825133 67.40398512 -5.71480256 64.22128377 -5.9375 59.6875 C-6.04704177 57.10278045 -6.06750524 54.59161416 -6 52 C-5.34 51.34 -4.68 50.68 -4 50 C-4 54.95 -4 59.9 -4 65 C-3.34 65 -2.68 65 -2 65 C-0.98204315 61.61150805 -0.84572865 58.47609491 -0.79467773 54.94628906 C-0.7647599 53.11484344 -0.7647599 53.11484344 -0.73423767 51.24639893 C-0.71752518 49.93274353 -0.70081268 48.61908813 -0.68359375 47.265625 C-0.66301081 45.90370064 -0.64201399 44.54178248 -0.62062073 43.17987061 C-0.56553835 39.60265128 -0.51606836 36.02537562 -0.46777344 32.44805908 C-0.41745711 28.79474906 -0.36182403 25.14152042 -0.30664062 21.48828125 C-0.19922838 14.32558983 -0.09774615 7.16283054 0 0 Z " fill="#3C525F" transform="translate(46,71)"/>
<path d="M0 0 C1.32 0 2.64 0 4 0 C5.12691228 5.41801968 5.14481736 10.67017787 5.1328125 16.17578125 C5.13376923 17.14154587 5.13472595 18.10731049 5.13571167 19.1023407 C5.1363898 21.13373887 5.1345612 23.16513924 5.13037109 25.1965332 C5.12498841 28.31922191 5.13034342 31.44176869 5.13671875 34.56445312 C5.13605848 36.53906282 5.13477837 38.51367242 5.1328125 40.48828125 C5.13483673 41.42674393 5.13686096 42.3652066 5.13894653 43.33210754 C5.13579437 44.19357895 5.13264221 45.05505035 5.12939453 45.94262695 C5.12820114 47.0846331 5.12820114 47.0846331 5.12698364 48.24971008 C5 50 5 50 4 51 C2.00041636 51.04080783 -0.00045254 51.04254356 -2 51 C-2.04254356 49.00045254 -2.04080783 46.99958364 -2 45 C-1.505 44.505 -1.505 44.505 -1 44 C-0.89888971 41.23511055 -0.86030661 38.49574779 -0.8671875 35.73046875 C-0.86623077 34.89792068 -0.86527405 34.06537262 -0.86428833 33.20759583 C-0.8636063 31.44137497 -0.86546217 29.67515162 -0.86962891 27.90893555 C-0.87495675 25.2094149 -0.86969516 22.51006217 -0.86328125 19.81054688 C-0.86394242 18.0963538 -0.8652244 16.38216083 -0.8671875 14.66796875 C-0.86415115 13.45683662 -0.86415115 13.45683662 -0.86105347 12.22123718 C-0.83842606 7.99913583 -0.83842606 7.99913583 -1.63308716 3.8795929 C-1.81470901 2.94919441 -1.81470901 2.94919441 -2 2 C-1.34 1.34 -0.68 0.68 0 0 Z " fill="#18516D" transform="translate(142,76)"/>
<path d="M0 0 C0.99 0 1.98 0 3 0 C3 24.42 3 48.84 3 74 C2.01 74 1.02 74 0 74 C0 49.58 0 25.16 0 0 Z " fill="#A6BFC9" transform="translate(102,56)"/>
<path d="M0 0 C0.99 0 1.98 0 3 0 C3.33 21.78 3.66 43.56 4 66 C1.525 66.495 1.525 66.495 -1 67 C-1.33 66.67 -1.66 66.34 -2 66 C-1.76191093 64.45360382 -1.52226931 62.90744029 -1.27786255 61.36203003 C-0.65611531 56.07673461 -0.75441169 50.72568402 -0.68359375 45.41015625 C-0.66281265 44.11049423 -0.64203156 42.81083221 -0.62062073 41.4717865 C-0.56575967 38.03763825 -0.5161938 34.60343375 -0.46777344 31.16918945 C-0.4172936 27.6563626 -0.36174661 24.14361616 -0.30664062 20.63085938 C-0.19949989 13.75397611 -0.09795943 6.87702002 0 0 Z " fill="#155574" transform="translate(124,53)"/>
<path d="M0 0 C0.99 0 1.98 0 3 0 C3 23.76 3 47.52 3 72 C1.515 72.495 1.515 72.495 0 73 C0 48.91 0 24.82 0 0 Z " fill="#2F524B" transform="translate(78,52)"/>
<path d="M0 0 C2.625 0.375 2.625 0.375 5 1 C5.38218767 2.65614657 5.71395102 4.32457024 6 6 C5.67 6.33 5.34 6.66 5 7 C4.83989519 9.73701178 4.74053172 12.4516759 4.68359375 15.19140625 C4.66281265 16.01124496 4.64203156 16.83108368 4.62062073 17.67576599 C4.55503506 20.30458901 4.49619874 22.93351504 4.4375 25.5625 C4.39432333 27.34050561 4.35070933 29.11850065 4.30664062 30.89648438 C4.19934457 35.26421634 4.09810296 39.63205227 4 44 C2.02 44.495 2.02 44.495 0 45 C-0.02505615 43.87505127 -0.0501123 42.75010254 -0.07592773 41.59106445 C-0.17028435 37.4070345 -0.27043553 33.22315964 -0.37231445 29.03930664 C-0.4155566 27.23042435 -0.45723904 25.42150405 -0.49731445 23.61254883 C-0.5552774 21.00850995 -0.61889613 18.40466045 -0.68359375 15.80078125 C-0.70030624 14.99538406 -0.71701874 14.18998688 -0.73423767 13.36018372 C-0.81868925 10.14046992 -0.9491422 7.23071842 -1.64477539 4.07495117 C-1.76199951 3.39021729 -1.87922363 2.7054834 -2 2 C-1.34 1.34 -0.68 0.68 0 0 Z " fill="#355C53" transform="translate(67,88)"/>
<path d="M0 0 C0.66 0 1.32 0 2 0 C2 25.41 2 50.82 2 77 C9.59 77 17.18 77 25 77 C33.3671875 79.25 33.3671875 79.25 37 81 C33.14844474 82.28385175 31.80393181 81.29190137 28 80 C20.18807431 78.60501327 10.57684098 77.47438634 3 80 C-1.50265689 75.49734311 -0.1081939 66.55206304 -0.11638546 60.58135223 C-0.11320397 58.35630029 -0.10552097 56.13128991 -0.09765625 53.90625 C-0.09578842 52.34826707 -0.09436624 50.79028354 -0.09336853 49.2322998 C-0.08957208 45.15529729 -0.0797667 41.07833107 -0.06866455 37.00134277 C-0.05838831 32.83162934 -0.05385766 28.66190998 -0.04882812 24.4921875 C-0.03814154 16.32810845 -0.02110009 8.16405875 0 0 Z " fill="#174F6C" transform="translate(107,58)"/>
<path d="M0 0 C1.28112423 3.88630028 1.09297768 7.76001106 1.02172852 11.79785156 C1.01212097 12.57872131 1.00251343 13.35959106 0.99261475 14.16412354 C0.95968955 16.73971762 0.91933264 19.31513864 0.87890625 21.890625 C0.8545988 23.67852166 0.83075555 25.4664247 0.80735779 27.2543335 C0.74457908 31.95616925 0.67549484 36.65789203 0.60510254 41.35961914 C0.53436297 46.15896467 0.46957966 50.95839019 0.40429688 55.7578125 C0.27536463 65.1719629 0.13977165 74.58600473 0 84 C-2.31 83.34 -4.62 82.68 -7 82 C-7 73.75 -7 65.5 -7 57 C-6.67 57 -6.34 57 -6 57 C-6 63.93 -6 70.86 -6 78 C-4.02 77.505 -4.02 77.505 -2 77 C-1.67 52.58 -1.34 28.16 -1 3 C-1.99 3.33 -2.98 3.66 -4 4 C-6.06145107 4.068991 -8.12501401 4.08467727 -10.1875 4.0625 C-11.81751953 4.04896484 -11.81751953 4.04896484 -13.48046875 4.03515625 C-14.31191406 4.02355469 -15.14335938 4.01195312 -16 4 C-16 5.65 -16 7.3 -16 9 C-16.33 9 -16.66 9 -17 9 C-17.04254356 7.00045254 -17.04080783 4.99958364 -17 3 C-16 2 -16 2 -12.40234375 1.90234375 C-10.91403133 1.9090178 -9.42573568 1.92097817 -7.9375 1.9375 C-7.17888672 1.94201172 -6.42027344 1.94652344 -5.63867188 1.95117188 C-3.75908129 1.9629932 -1.87953101 1.98092922 0 2 C0 1.34 0 0.68 0 0 Z " fill="#76A170" transform="translate(98,55)"/>
<path d="M0 0 C0.99 0.33 1.98 0.66 3 1 C3 14.2 3 27.4 3 41 C3.66 41 4.32 41 5 41 C5 42.98 5 44.96 5 47 C3.00045254 47.04254356 0.99958364 47.04080783 -1 47 C-2 46 -2 46 -2.0625 43.4375 C-2.041875 42.633125 -2.02125 41.82875 -2 41 C-1.34 41 -0.68 41 0 41 C0 27.47 0 13.94 0 0 Z " fill="#16506B" transform="translate(133,57)"/>
<path d="M0 0 C1.32 0 2.64 0 4 0 C4 13.53 4 27.06 4 41 C3.01 41.495 3.01 41.495 2 42 C-0.25310106 37.52108457 -0.25987948 33.31885465 -0.1953125 28.41796875 C-0.1924826 27.60378983 -0.18965271 26.7896109 -0.18673706 25.95075989 C-0.17558584 23.362854 -0.15049083 20.77530042 -0.125 18.1875 C-0.11496365 16.42773939 -0.10583894 14.66797333 -0.09765625 12.90820312 C-0.0756631 8.60533402 -0.04116836 4.30272664 0 0 Z " fill="#057AB7" transform="translate(119,61)"/>
<path d="M0 0 C2.97 0.495 2.97 0.495 6 1 C6.02541267 8.27741752 6.04289324 15.55482354 6.05493164 22.83227539 C6.05995179 25.3065636 6.06676926 27.78084885 6.07543945 30.25512695 C6.08760656 33.81722748 6.09325159 37.37928869 6.09765625 40.94140625 C6.10281754 42.04271378 6.10797882 43.1440213 6.11329651 44.27870178 C6.113685 49.6307755 5.94799094 54.72864553 5 60 C3.515 60.495 3.515 60.495 2 61 C2.8880597 53.51492537 2.8880597 53.51492537 3.625 50.125 C4.22560146 47.95466382 4.22560146 47.95466382 3 46 C2.505 46.495 2.505 46.495 2 47 C-1.5 47.125 -1.5 47.125 -5 47 C-6 46 -6 46 -6.0625 43.4375 C-6.041875 42.633125 -6.02125 41.82875 -6 41 C-5.34 42.32 -4.68 43.64 -4 45 C-2.02 45 -0.04 45 2 45 C1.67402832 44.36553955 1.34805664 43.7310791 1.01220703 43.07739258 C-0.35768668 38.91253242 -0.24824714 35.11617371 -0.1953125 30.76171875 C-0.1924826 29.88095169 -0.18965271 29.00018463 -0.18673706 28.09272766 C-0.17557833 25.29084455 -0.15048171 22.48928584 -0.125 19.6875 C-0.11496463 17.78320775 -0.10583975 15.87891048 -0.09765625 13.97460938 C-0.07565309 9.31628203 -0.04115294 4.65819594 0 0 Z M1 2 C0.95045895 7.17780166 0.91421364 12.35546446 0.89013672 17.53344727 C0.88009649 19.29388839 0.86646156 21.05431291 0.84912109 22.81469727 C0.82478564 25.34916285 0.81349704 27.88340739 0.8046875 30.41796875 C0.79436493 31.20149216 0.78404236 31.98501556 0.77340698 32.7922821 C0.77255306 36.97755404 1.10796168 40.23883731 3 44 C3.99 43.505 3.99 43.505 5 43 C5 29.47 5 15.94 5 2 C3.68 2 2.36 2 1 2 Z " fill="#1374A5" transform="translate(118,59)"/>
<path d="M0 0 C2.35482691 0.9571232 4.67466114 1.97148474 7 3 C7 6.63 7 10.26 7 14 C6.67 14 6.34 14 6 14 C6 11.36 6 8.72 6 6 C5.01 6 4.02 6 3 6 C3 8.31 3 10.62 3 13 C0.03 12.505 0.03 12.505 -3 12 C-3 9.69 -3 7.38 -3 5 C-3.99 5 -4.98 5 -6 5 C-6 7.31 -6 9.62 -6 12 C-7.65 12 -9.3 12 -11 12 C-9.68 11.67 -8.36 11.34 -7 11 C-7 8.69 -7 6.38 -7 4 C-6.01 4 -5.02 4 -4 4 C-4.66 2.68 -5.32 1.36 -6 0 C-3.39109439 -1.3044528 -2.75956619 -0.89499444 0 0 Z " fill="#A4B2B3" transform="translate(121,47)"/>
<path d="M0 0 C0.495 0.99 0.495 0.99 1 2 C-9 -0 -9 -0 -11.625 -0.5546875 C-17.8163986 -1.71557474 -23.05774505 -0.66800139 -29 1 C-28.34 0.01 -27.68 -0.98 -27 -2 C-28.32 -2 -29.64 -2 -31 -2 C-31.66 -1.34 -32.32 -0.68 -33 0 C-33.66 -0.33 -34.32 -0.66 -35 -1 C-35 -1.99 -35 -2.98 -35 -4 C-23.5974965 -7.60390007 -10.4400469 -5.25185286 0 0 Z " fill="#AFB8BA" transform="translate(147,152)"/>
<path d="M0 0 C0.99 0 1.98 0 3 0 C2.67 20.13 2.34 40.26 2 61 C1.67 61 1.34 61 1 61 C0.27755799 40.65634046 -0.15785825 20.3588565 0 0 Z " fill="#1C4E66" transform="translate(124,53)"/>
<path d="M0 0 C0.66 0 1.32 0 2 0 C2 0.66 2 1.32 2 2 C2.556875 1.649375 3.11375 1.29875 3.6875 0.9375 C6.53886783 -0.21845993 8.08517222 0.19032562 11 1 C9.43714092 3.52936404 8.53012513 4.81015789 5.6875 5.828125 C-0.92780918 6.8665747 -7.30587759 7.23306422 -14 7 C-14 6.67 -14 6.34 -14 6 C-11.36 6 -8.72 6 -6 6 C-6 5.34 -6 4.68 -6 4 C-9.63 3.67 -13.26 3.34 -17 3 C-17 2.67 -17 2.34 -17 2 C-11.39 2 -5.78 2 0 2 C0 1.34 0 0.68 0 0 Z " fill="#B8BDBB" transform="translate(110,149)"/>
<path d="M0 0 C0.33 0 0.66 0 1 0 C1.00808685 0.88505219 1.01617371 1.77010437 1.02450562 2.68197632 C1.1023515 11.01081811 1.18961151 19.33949606 1.28752708 27.66812706 C1.33753581 31.95026771 1.38386522 36.23238314 1.421875 40.51464844 C1.4586703 44.64500217 1.5050141 48.77514718 1.55806351 52.90532303 C1.57663819 54.483388 1.59173472 56.06149777 1.60334396 57.63962936 C1.62015427 59.84509543 1.64917535 62.05008023 1.68115234 64.25537109 C1.70113785 66.14067032 1.70113785 66.14067032 1.7215271 68.0640564 C1.69695553 71.12174105 1.69695553 71.12174105 4 73 C2.02 73.99 2.02 73.99 0 75 C0 50.25 0 25.5 0 0 Z " fill="#B7C1C6" transform="translate(47,72)"/>
<path d="M0 0 C0.33 0 0.66 0 1 0 C1.09796875 0.85722656 1.1959375 1.71445313 1.296875 2.59765625 C2.16001327 10.19497084 2.16001327 10.19497084 5.25 17.0625 C5.8275 18.031875 6.405 19.00125 7 20 C6.375 22.375 6.375 22.375 5 24 C4.34 24.33 3.68 24.66 3 25 C2.67 23.35 2.34 21.7 2 20 C1.34 20.33 0.68 20.66 0 21 C0.33 19.68 0.66 18.36 1 17 C0.01 17.33 -0.98 17.66 -2 18 C-2.27560214 11.79895188 -1.22899346 6.06815522 0 0 Z " fill="#3B5161" transform="translate(159,128)"/>
<path d="M0 0 C1.32 0 2.64 0 4 0 C5.05045549 5.05774866 5.05206635 9.77291149 4.87890625 14.8984375 C4.85529526 15.73339752 4.83168427 16.56835754 4.80735779 17.42861938 C4.73120145 20.07760691 4.64697262 22.72626594 4.5625 25.375 C4.50923113 27.17836971 4.45649112 28.98175512 4.40429688 30.78515625 C4.2756519 35.19030949 4.13976996 39.59518627 4 44 C3.67 44 3.34 44 3 44 C3 31.46 3 18.92 3 6 C1.35 5.67 -0.3 5.34 -2 5 C-1.125 1.125 -1.125 1.125 0 0 Z " fill="#176288" transform="translate(142,76)"/>
<path d="M0 0 C2.475 0.495 2.475 0.495 5 1 C6.3125 3.0625 6.3125 3.0625 7 5 C7.66 5 8.32 5 9 5 C9 5.66 9 6.32 9 7 C7.02 7 5.04 7 3 7 C3 10.3 3 13.6 3 17 C2.01 16.67 1.02 16.34 0 16 C0 10.72 0 5.44 0 0 Z " fill="#047CB8" transform="translate(137,67)"/>
<path d="M0 0 C0.33 0 0.66 0 1 0 C1 4.95 1 9.9 1 15 C1.66 15 2.32 15 3 15 C3.33 13.68 3.66 12.36 4 11 C4.19573608 12.43640171 4.38127816 13.87419504 4.5625 15.3125 C4.71912109 16.51326172 4.71912109 16.51326172 4.87890625 17.73828125 C5 20 5 20 4 23 C3.01 23.33 2.02 23.66 1 24 C0.67 23.34 0.34 22.68 0 22 C-0.66 21.67 -1.32 21.34 -2 21 C-1.505 19.515 -1.505 19.515 -1 18 C-0.95474094 15.3042573 -0.95236204 12.63142683 -1 9.9375 C-1.13487681 2.26975361 -1.13487681 2.26975361 0 0 Z " fill="#3B5260" transform="translate(41,121)"/>
<path d="M0 0 C0.33 0 0.66 0 1 0 C1 6.27 1 12.54 1 19 C1.99 18.67 2.98 18.34 4 18 C5 19 5 19 5.125 21.5 C5 24 5 24 4 25 C2.00041636 25.04080783 -0.00045254 25.04254356 -2 25 C-2.04254356 23.00045254 -2.04080783 20.99958364 -2 19 C-1.67 18.67 -1.34 18.34 -1 18 C-0.84417697 16.65984779 -0.74955858 15.31241097 -0.68359375 13.96484375 C-0.62075195 12.75151367 -0.62075195 12.75151367 -0.55664062 11.51367188 C-0.51732422 10.66353516 -0.47800781 9.81339844 -0.4375 8.9375 C-0.39431641 8.08349609 -0.35113281 7.22949219 -0.30664062 6.34960938 C-0.20023298 4.23327963 -0.09958269 2.11666187 0 0 Z " fill="#185A7B" transform="translate(142,102)"/>
<path d="M0 0 C0.99 0 1.98 0 3 0 C2.67 14.85 2.34 29.7 2 45 C1.67 45 1.34 45 1 45 C0.67 30.15 0.34 15.3 0 0 Z " fill="#1F4C66" transform="translate(115,52)"/>
<path d="M0 0 C0.33 0.66 0.66 1.32 1 2 C0.34 2.66 -0.32 3.32 -1 4 C-1.5775 4.680625 -2.155 5.36125 -2.75 6.0625 C-5.48665454 8.41906363 -7.45560053 8.67778187 -11 9 C-11.04898438 9.63808594 -11.09796875 10.27617188 -11.1484375 10.93359375 C-11.22320312 11.75988281 -11.29796875 12.58617188 -11.375 13.4375 C-11.47941406 14.67306641 -11.47941406 14.67306641 -11.5859375 15.93359375 C-11.72257812 16.61550781 -11.85921875 17.29742187 -12 18 C-12.66 18.33 -13.32 18.66 -14 19 C-14.49109173 15.54871649 -14.66756767 12.43540596 -14 9 C-10.43823894 4.70285047 -5.01173798 2.25528209 0 0 Z " fill="#7AA169" transform="translate(65,63)"/>
<path d="M0 0 C0.99 1.32 1.98 2.64 3 4 C2 5 2 5 -1.0625 5.0625 C-2.031875 5.041875 -3.00125 5.02125 -4 5 C-4.98120464 8.05263664 -4.98120464 9.94736336 -4 13 C-7.465 11.02 -7.465 11.02 -11 9 C-9.79618552 6.50638429 -8.54571278 4.31856917 -7 2 C-4.03 2.495 -4.03 2.495 -1 3 C-0.67 2.01 -0.34 1.02 0 0 Z " fill="#354C5A" transform="translate(152,151)"/>
<path d="M0 0 C0.33 0 0.66 0 1 0 C1.12353289 5.35676631 1.21430573 10.71270526 1.2746582 16.07055664 C1.29981397 17.89329467 1.33394285 19.71593172 1.37719727 21.53833008 C1.43780546 24.15731693 1.46619761 26.77497153 1.48828125 29.39453125 C1.51408768 30.21025101 1.5398941 31.02597076 1.56648254 31.8664093 C1.56762695 34.17114258 1.56762695 34.17114258 1 38 C-2.10418618 40.629788 -5.00799939 41.4297142 -9 42 C-9.33 41.34 -9.66 40.68 -10 40 C-6.67485327 38.86642725 -3.4120992 37.8530248 0 37 C0 24.79 0 12.58 0 0 Z " fill="#78A272" transform="translate(66,95)"/>
<path d="M0 0 C7.92 0 15.84 0 24 0 C24 0.33 24 0.66 24 1 C23.16021606 1.029729 23.16021606 1.029729 22.3034668 1.06005859 C19.76434146 1.15537783 17.22603112 1.26502753 14.6875 1.375 C13.36588867 1.42140625 13.36588867 1.42140625 12.01757812 1.46875 C11.17001953 1.50742187 10.32246094 1.54609375 9.44921875 1.5859375 C8.27879028 1.63306885 8.27879028 1.63306885 7.0847168 1.68115234 C4.69844232 1.89587889 4.69844232 1.89587889 2 4 C0.93097061 6.30252483 -0.07175817 8.6372026 -1 11 C-1.33 11.66 -1.66 12.32 -2 13 C-2.66 13 -3.32 13 -4 13 C-3.52140759 11.39566191 -3.04210442 9.79153584 -2.5625 8.1875 C-2.29566406 7.29417969 -2.02882813 6.40085937 -1.75390625 5.48046875 C-1.19612127 3.64526945 -0.60655425 1.81966274 0 0 Z " fill="#3C4F56" transform="translate(88,19)"/>
<path d="M0 0 C1.98 0 3.96 0 6 0 C6.33 1.98 6.66 3.96 7 6 C5.35 6.66 3.7 7.32 2 8 C2 7.34 2 6.68 2 6 C1.01 6 0.02 6 -1 6 C-0.67 4.02 -0.34 2.04 0 0 Z " fill="#2D5952" transform="translate(86,62)"/>
<path d="M0 0 C24.98265839 -0.82555811 24.98265839 -0.82555811 35 4 C31.14844474 5.28385175 29.80393181 4.29190137 26 3 C18.18807431 1.60501327 8.57684098 0.47438634 1 3 C0.67 2.01 0.34 1.02 0 0 Z " fill="#1B5372" transform="translate(109,135)"/>
<path d="M0 0 C0.33 0 0.66 0 1 0 C1 6.93 1 13.86 1 21 C1.66 21 2.32 21 3 21 C3 21.66 3 22.32 3 23 C4.32 23.33 5.64 23.66 7 24 C7 24.99 7 25.98 7 27 C4.69 26.34 2.38 25.68 0 25 C0 16.75 0 8.5 0 0 Z " fill="#79A675" transform="translate(91,112)"/>
<path d="M0 0 C0.99 0.33 1.98 0.66 3 1 C2.67 10.24 2.34 19.48 2 29 C1.67 29 1.34 29 1 29 C0.67 19.43 0.34 9.86 0 0 Z " fill="#214F62" transform="translate(133,57)"/>
<path d="M0 0 C7.36072234 0.42465706 13.32137824 2.98348917 20 6 C16.33967915 7.22010695 14.59039783 6.66318212 10.875 5.75 C9.79992187 5.49734375 8.72484375 5.2446875 7.6171875 4.984375 C6.32167969 4.49710938 6.32167969 4.49710938 5 4 C4.67 3.01 4.34 2.02 4 1 C1.98491642 0.26676204 1.98491642 0.26676204 0 0 Z " fill="#9CABB7" transform="translate(128,147)"/>
<path d="M0 0 C-0.66 0.66 -1.32 1.32 -2 2 C-1.34 2.66 -0.68 3.32 0 4 C-0.99 4.495 -0.99 4.495 -2 5 C-2.56203125 4.68289062 -3.1240625 4.36578125 -3.703125 4.0390625 C-6.88641634 2.59900213 -9.29990378 3.02999038 -12.75 3.375 C-14.50570312 3.54128906 -14.50570312 3.54128906 -16.296875 3.7109375 C-17.18890625 3.80632812 -18.0809375 3.90171875 -19 4 C-14.00903151 -0.99096849 -6.57219564 -0.23802721 0 0 Z " fill="#A1AFB6" transform="translate(76,145)"/>
<path d="M0 0 C0.33 0 0.66 0 1 0 C1 8.58 1 17.16 1 26 C2.32 26.33 3.64 26.66 5 27 C3.35 27.66 1.7 28.32 0 29 C0 19.43 0 9.86 0 0 Z " fill="#7B9F6A" transform="translate(51,111)"/>
<path d="M0 0 C0.33 0.66 0.66 1.32 1 2 C2.32 1.67 3.64 1.34 5 1 C5 2.98 5 4.96 5 7 C3.00045254 7.04254356 0.99958364 7.04080783 -1 7 C-2 6 -2 6 -2.0625 3.4375 C-2.041875 2.633125 -2.02125 1.82875 -2 1 C-1.34 0.67 -0.68 0.34 0 0 Z " fill="#195B7D" transform="translate(133,97)"/>
<path d="M0 0 C2.76276177 0.52268466 5.3260876 1.10869587 8 2 C9.89212737 2.22179785 11.78884472 2.40614015 13.6875 2.5625 C14.68136719 2.64628906 15.67523438 2.73007812 16.69921875 2.81640625 C17.83810547 2.90728516 17.83810547 2.90728516 19 3 C18.67 3.66 18.34 4.32 18 5 C10.75460274 5.53449652 6.27087737 4.71607548 0 1 C0 0.67 0 0.34 0 0 Z " fill="#A9B3B5" transform="translate(54,36)"/>
<path d="M0 0 C0.33 0 0.66 0 1 0 C1 7.59 1 15.18 1 23 C-4 21 -4 21 -6 19 C-4.02 19.33 -2.04 19.66 0 20 C0 13.4 0 6.8 0 0 Z " fill="#0F71A1" transform="translate(150,121)"/>
<path d="M0 0 C3.71599191 -0.20086443 4.77208445 -0.1519437 8 2 C9.1875 5.125 9.1875 5.125 10 8 C8.35 8.33 6.7 8.66 5 9 C4.9175 8.05125 4.835 7.1025 4.75 6.125 C4.34925077 2.89538209 4.34925077 2.89538209 1.9375 1.625 C1.298125 1.41875 0.65875 1.2125 0 1 C0 0.67 0 0.34 0 0 Z " fill="#364B60" transform="translate(152,69)"/>
<path d="M0 0 C0.99 0.33 1.98 0.66 3 1 C3.33 4.3 3.66 7.6 4 11 C2.68 10.67 1.36 10.34 0 10 C0 6.7 0 3.4 0 0 Z " fill="#BAC0BF" transform="translate(128,51)"/>
<path d="M0 0 C1.42944945 2.35438733 2.08661261 3.48032433 1.625 6.25 C1.41875 6.8275 1.2125 7.405 1 8 C-0.32 8 -1.64 8 -3 8 C-1.125 2.25 -1.125 2.25 0 0 Z " fill="#ADB5B3" transform="translate(163,120)"/>
<path d="M0 0 C0.99 0 1.98 0 3 0 C3 2.64 3 5.28 3 8 C2.01 7.67 1.02 7.34 0 7 C0 4.69 0 2.38 0 0 Z " fill="#374B56" transform="translate(124,53)"/>
<path d="M0 0 C4.75 0.875 4.75 0.875 7 2 C7 2.99 7 3.98 7 5 C4.69 4.34 2.38 3.68 0 3 C0 2.01 0 1.02 0 0 Z " fill="#A9BEB3" transform="translate(91,134)"/>
<path d="M0 0 C0.66 0.33 1.32 0.66 2 1 C2 2.65 2 4.3 2 6 C0.35 6.33 -1.3 6.66 -3 7 C-3.33 5.35 -3.66 3.7 -4 2 C-3.67 2.99 -3.34 3.98 -3 5 C-2.01 5 -1.02 5 0 5 C0 3.35 0 1.7 0 0 Z " fill="#0E5579" transform="translate(145,120)"/>
<path d="M0 0 C0.66 0.33 1.32 0.66 2 1 C1.25 2.9375 1.25 2.9375 0 5 C-2.125 5.75 -2.125 5.75 -4 6 C-4 5.01 -4 4.02 -4 3 C-2 1.3125 -2 1.3125 0 0 Z " fill="#B1B7BB" transform="translate(169,115)"/>
<path d="M0 0 C0.99 0 1.98 0 3 0 C3 2.31 3 4.62 3 7 C2.01 7 1.02 7 0 7 C0 4.69 0 2.38 0 0 Z " fill="#314757" transform="translate(115,52)"/>
<path d="M0 0 C1.98 0 3.96 0 6 0 C5.67 0.66 5.34 1.32 5 2 C6.32 2.66 7.64 3.32 9 4 C9 4.66 9 5.32 9 6 C5.59687262 4.94124926 2.98646769 3.99097846 0 2 C0 1.34 0 0.68 0 0 Z " fill="#ACB4B6" transform="translate(119,34)"/>
<path d="M0 0 C0.66 0 1.32 0 2 0 C2.33 1.32 2.66 2.64 3 4 C1.68 4.99 0.36 5.98 -1 7 C-1.625 5.1875 -1.625 5.1875 -2 3 C-1.34 2.01 -0.68 1.02 0 0 Z " fill="#46565F" transform="translate(163,146)"/>
<path d="M0 0 C1.18851563 0.10183594 2.37703125 0.20367187 3.6015625 0.30859375 C4.51679687 0.39238281 5.43203125 0.47617188 6.375 0.5625 C6.375 0.8925 6.375 1.2225 6.375 1.5625 C1.425 1.8925 -3.525 2.2225 -8.625 2.5625 C-8.625 1.9025 -8.625 1.2425 -8.625 0.5625 C-5.68113377 -0.90943312 -3.25109964 -0.28686173 0 0 Z " fill="#BEC4C3" transform="translate(76.625,133.4375)"/>
<path d="M0 0 C0 1.65 0 3.3 0 5 C-2.31 4.67 -4.62 4.34 -7 4 C-5 1 -5 1 -2.9375 0.3125 C-1 0 -1 0 0 0 Z " fill="#C0C0B9" transform="translate(77,54)"/>
<path d="M0 0 C2.475 0.99 2.475 0.99 5 2 C5 2.99 5 3.98 5 5 C3.35 5.33 1.7 5.66 0 6 C0 4.02 0 2.04 0 0 Z " fill="#BBBEBA" transform="translate(119,52)"/>
<path d="M0 0 C2.64 0.33 5.28 0.66 8 1 C8 1.66 8 2.32 8 3 C6.02 3.66 4.04 4.32 2 5 C1.34 4.34 0.68 3.68 0 3 C0 2.01 0 1.02 0 0 Z " fill="#AAB2B4" transform="translate(144,162)"/>
<path d="M0 0 C1.65 0 3.3 0 5 0 C5 1.32 5 2.64 5 4 C3.35 4 1.7 4 0 4 C0 2.68 0 1.36 0 0 Z " fill="#2C616D" transform="translate(85,64)"/>
<path d="M0 0 C1.5625 1.25 1.5625 1.25 3 3 C2.6875 5.1875 2.6875 5.1875 2 7 C1.34 7 0.68 7 0 7 C-0.66 5.35 -1.32 3.7 -2 2 C-1.34 1.34 -0.68 0.68 0 0 Z " fill="#B1B7B8" transform="translate(37,56)"/>
<path d="M0 0 C0.99 1.32 1.98 2.64 3 4 C2 5 2 5 -0.5625 5.0625 C-1.7690625 5.0315625 -1.7690625 5.0315625 -3 5 C-3.33 4.34 -3.66 3.68 -4 3 C-3.01 3 -2.02 3 -1 3 C-0.67 2.01 -0.34 1.02 0 0 Z " fill="#3D5567" transform="translate(152,151)"/>
<path d="M0 0 C0.66 1.32 1.32 2.64 2 4 C2.99 4 3.98 4 5 4 C5.33 3.34 5.66 2.68 6 2 C5.67 3.32 5.34 4.64 5 6 C3.35 5.67 1.7 5.34 0 5 C0 3.35 0 1.7 0 0 Z " fill="#105377" transform="translate(113,99)"/>
<path d="M0 0 C1 3 1 3 1 7 C0.34 7.66 -0.32 8.32 -1 9 C-1.66 7.02 -2.32 5.04 -3 3 C-2.01 2.01 -1.02 1.02 0 0 Z " fill="#3F515C" transform="translate(38,47)"/>
<path d="M0 0 C1.32 0.66 2.64 1.32 4 2 C1.6875 3.5625 1.6875 3.5625 -1 5 C-1.99 4.67 -2.98 4.34 -4 4 C-2.68 2.68 -1.36 1.36 0 0 Z " fill="#3E515B" transform="translate(50,35)"/>
<path d="M0 0 C1.65 1.65 3.3 3.3 5 5 C4.34 5.66 3.68 6.32 3 7 C1.35 5.02 -0.3 3.04 -2 1 C-1.34 0.67 -0.68 0.34 0 0 Z " fill="#42555F" transform="translate(38,149)"/>
<path d="M0 0 C0.66 0.99 1.32 1.98 2 3 C2.99387334 4.33790641 3.9926892 5.67218122 5 7 C4.67 7.66 4.34 8.32 4 9 C1.4375 6.75 1.4375 6.75 -1 4 C-0.8125 1.6875 -0.8125 1.6875 0 0 Z " fill="#AEB8BB" transform="translate(163,74)"/>
<path d="M0 0 C3.71599191 -0.20086443 4.77208445 -0.1519437 8 2 C8 2.66 8 3.32 8 4 C7.01 4.33 6.02 4.66 5 5 C3.33333333 3.33333333 1.66666667 1.66666667 0 0 Z " fill="#3D5462" transform="translate(152,69)"/>
<path d="M0 0 C0.99 0.33 1.98 0.66 3 1 C3 2.98 3 4.96 3 7 C2.01 6.34 1.02 5.68 0 5 C-0.1875 2.375 -0.1875 2.375 0 0 Z " fill="#36484C" transform="translate(133,57)"/>
</svg>
